<mxfile host="app.diagrams.net" modified="2024-01-16T11:49:25.039Z" agent="Mozilla/5.0 (Windows NT 10.0; Win64; x64) AppleWebKit/537.36 (KHTML, like Gecko) Chrome/120.0.0.0 Safari/537.36" version="22.1.18" etag="lsTHTrMCdSPEn0rOwj2f" type="github">
  <diagram name="Page-1" id="RDEGIuLe8WPzBzui0nek">
    <mxGraphModel>
      <root>
        <mxCell id="0" />
        <mxCell id="1" parent="0" />
      </root>
    </mxGraphModel>
  </diagram>
</mxfile>
